HIERARCHY
ROOT Hips
{
  OFFSET 5.80788e-005 67.184 3.4734
  CHANNELS 6 Xposition Yposition Zposition Zrotation Xrotation Yrotation
  JOINT Chest
  {
    OFFSET 0 8.7983 -4.7612
    CHANNELS 3 Zrotation Xrotation Yrotation
    JOINT Chest2
    {
      OFFSET 0 8.0291 0.4195
      CHANNELS 3 Zrotation Xrotation Yrotation
      JOINT Chest3
      {
        OFFSET 0 9.9351 -2.2114
        CHANNELS 3 Zrotation Xrotation Yrotation
        JOINT Neck
        {
          OFFSET 0 22.3885 -0.4656
          CHANNELS 3 Zrotation Xrotation Yrotation
          JOINT Head
          {
            OFFSET -0.0001 12.643 3.4389
            CHANNELS 3 Zrotation Xrotation Yrotation
            End Site
            {
              OFFSET 0.0001 17.6655 0.5274
            }
          }
        }
        JOINT LeftCollar
        {
          OFFSET 2.2603 21.606 7.4023
          CHANNELS 3 Zrotation Xrotation Yrotation
          JOINT LeftShoulder
          {
            OFFSET 13.5163 -1.1332 -5.0146
            CHANNELS 3 Zrotation Xrotation Yrotation
            JOINT LeftElbow
            {
              OFFSET -0.0995 -28.05 -0.2431
              CHANNELS 3 Zrotation Xrotation Yrotation
              JOINT LeftWrist
              {
                OFFSET 0.0679 -23.3996 -0.1402
                CHANNELS 3 Zrotation Xrotation Yrotation
                JOINT LeftFinger1
                {
                  OFFSET 0.7932 -9.069 2.5189
                  CHANNELS 3 Zrotation Xrotation Yrotation
                  JOINT LeftFinger11
                  {
                    OFFSET -0.8272 -3.3923 0.5977
                    CHANNELS 3 Zrotation Xrotation Yrotation
                    JOINT LeftFinger12
                    {
                      OFFSET -0.5649 -2.3158 0.4082
                      CHANNELS 3 Zrotation Xrotation Yrotation
                      End Site
                      {
                        OFFSET -0.4919 -1.6479 0.2673
                      }
                    }
                  }
                }
                JOINT LeftFinger2
                {
                  OFFSET 0.9159 -9.2044 0.2193
                  CHANNELS 3 Zrotation Xrotation Yrotation
                  JOINT LeftFinger21
                  {
                    OFFSET 0.0117 -4.1944 -0.0248
                    CHANNELS 3 Zrotation Xrotation Yrotation
                    JOINT LeftFinger22
                    {
                      OFFSET 0.0071 -2.3249 -0.0142
                      CHANNELS 3 Zrotation Xrotation Yrotation
                      End Site
                      {
                        OFFSET -0.1475 -2.0882 0.0028
                      }
                    }
                  }
                }
                JOINT LeftFinger3
                {
                  OFFSET 0.6113 -8.7231 -2.0637
                  CHANNELS 3 Zrotation Xrotation Yrotation
                  JOINT LeftFinger31
                  {
                    OFFSET -0.1927 -3.8059 -0.2383
                    CHANNELS 3 Zrotation Xrotation Yrotation
                    JOINT LeftFinger32
                    {
                      OFFSET -0.1091 -2.1688 -0.1362
                      CHANNELS 3 Zrotation Xrotation Yrotation
                      End Site
                      {
                        OFFSET -0.2358 -1.9176 -0.0906
                      }
                    }
                  }
                }
                JOINT LeftFinger4
                {
                  OFFSET -0.6151 -8.0947 -3.5641
                  CHANNELS 3 Zrotation Xrotation Yrotation
                  JOINT LeftFinger41
                  {
                    OFFSET -0.4882 -2.341 -0.6462
                    CHANNELS 3 Zrotation Xrotation Yrotation
                    JOINT LeftFinger42
                    {
                      OFFSET -0.3575 -1.7167 -0.4742
                      CHANNELS 3 Zrotation Xrotation Yrotation
                      End Site
                      {
                        OFFSET -0.4187 -1.5237 -0.3496
                      }
                    }
                  }
                }
                JOINT LeftFinger0
                {
                  OFFSET -1.42 -1.8761 1.4223
                  CHANNELS 3 Zrotation Xrotation Yrotation
                  JOINT LeftFinger01
                  {
                    OFFSET -1.1471 -3.4929 2.6334
                    CHANNELS 3 Zrotation Xrotation Yrotation
                    JOINT LeftFinger02
                    {
                      OFFSET -0.823 -2.3 1.6571
                      CHANNELS 3 Zrotation Xrotation Yrotation
                      End Site
                      {
                        OFFSET -0.5822 -1.6914 1.1582
                      }
                    }
                  }
                }
              }
            }
          }
        }
        JOINT RightCollar
        {
          OFFSET -2.2603 21.606 7.4023
          CHANNELS 3 Zrotation Xrotation Yrotation
          JOINT RightShoulder
          {
            OFFSET -13.5187 -1.1334 -5.0155
            CHANNELS 3 Zrotation Xrotation Yrotation
            JOINT RightElbow
            {
              OFFSET 0.0994 -28.0499 -0.2431
              CHANNELS 3 Zrotation Xrotation Yrotation
              JOINT RightWrist
              {
                OFFSET -0.0679 -23.3996 -0.1402
                CHANNELS 3 Zrotation Xrotation Yrotation
                JOINT RightFinger1
                {
                  OFFSET -0.7932 -9.0691 2.5189
                  CHANNELS 3 Zrotation Xrotation Yrotation
                  JOINT RightFinger11
                  {
                    OFFSET 0.8272 -3.3923 0.5977
                    CHANNELS 3 Zrotation Xrotation Yrotation
                    JOINT RightFinger12
                    {
                      OFFSET 0.565 -2.3158 0.4082
                      CHANNELS 3 Zrotation Xrotation Yrotation
                      End Site
                      {
                        OFFSET 0.4919 -1.6479 0.2673
                      }
                    }
                  }
                }
                JOINT RightFinger2
                {
                  OFFSET -0.916 -9.2044 0.2193
                  CHANNELS 3 Zrotation Xrotation Yrotation
                  JOINT RightFinger21
                  {
                    OFFSET -0.0117 -4.1944 -0.0248
                    CHANNELS 3 Zrotation Xrotation Yrotation
                    JOINT RightFinger22
                    {
                      OFFSET -0.0071 -2.3249 -0.0142
                      CHANNELS 3 Zrotation Xrotation Yrotation
                      End Site
                      {
                        OFFSET 0.1475 -2.0882 0.0028
                      }
                    }
                  }
                }
                JOINT RightFinger3
                {
                  OFFSET -0.6113 -8.7231 -2.0637
                  CHANNELS 3 Zrotation Xrotation Yrotation
                  JOINT RightFinger31
                  {
                    OFFSET 0.1927 -3.8059 -0.2383
                    CHANNELS 3 Zrotation Xrotation Yrotation
                    JOINT RightFinger32
                    {
                      OFFSET 0.1091 -2.1688 -0.1362
                      CHANNELS 3 Zrotation Xrotation Yrotation
                      End Site
                      {
                        OFFSET 0.2358 -1.9176 -0.0906
                      }
                    }
                  }
                }
                JOINT RightFinger4
                {
                  OFFSET 0.6151 -8.0947 -3.564
                  CHANNELS 3 Zrotation Xrotation Yrotation
                  JOINT RightFinger41
                  {
                    OFFSET 0.4882 -2.341 -0.6462
                    CHANNELS 3 Zrotation Xrotation Yrotation
                    JOINT RightFinger42
                    {
                      OFFSET 0.3574 -1.7166 -0.4742
                      CHANNELS 3 Zrotation Xrotation Yrotation
                      End Site
                      {
                        OFFSET 0.4187 -1.5237 -0.3496
                      }
                    }
                  }
                }
                JOINT RightFinger0
                {
                  OFFSET 1.4199 -1.8761 1.4221
                  CHANNELS 3 Zrotation Xrotation Yrotation
                  JOINT RightFinger01
                  {
                    OFFSET 1.1472 -3.4929 2.6336
                    CHANNELS 3 Zrotation Xrotation Yrotation
                    JOINT RightFinger02
                    {
                      OFFSET 0.8229 -2.3 1.6571
                      CHANNELS 3 Zrotation Xrotation Yrotation
                      End Site
                      {
                        OFFSET 0.5822 -1.6914 1.1582
                      }
                    }
                  }
                }
              }
            }
          }
        }
      }
    }
  }
  JOINT RightHip
  {
    OFFSET -9.412 3.9771 -0.7758
    CHANNELS 3 Zrotation Xrotation Yrotation
    JOINT RightKnee
    {
      OFFSET -0.7531 -40.938 0
      CHANNELS 3 Zrotation Xrotation Yrotation
      JOINT RightAnkle
      {
        OFFSET 0 -40.1986 0
        CHANNELS 3 Zrotation Xrotation Yrotation
        JOINT RightToe
        {
          OFFSET 0 -4.4182 9.239
          CHANNELS 3 Zrotation Xrotation Yrotation
          End Site
          {
            OFFSET 0 0 6.1981
          }
        }
      }
    }
  }
  JOINT LeftHip
  {
    OFFSET 9.4119 3.9773 -0.7758
    CHANNELS 3 Zrotation Xrotation Yrotation
    JOINT LeftKnee
    {
      OFFSET 0.7532 -40.9383 0
      CHANNELS 3 Zrotation Xrotation Yrotation
      JOINT LeftAnkle
      {
        OFFSET 0 -40.1986 0
        CHANNELS 3 Zrotation Xrotation Yrotation
        JOINT LeftToe
        {
          OFFSET 0 -4.4182 9.239
          CHANNELS 3 Zrotation Xrotation Yrotation
          End Site
          {
            OFFSET 0 0 6.1981
          }
        }
      }
    }
  }
}
MOTION
Frames:	4
Frame Time:	0.0333333
5.80788e-005 67.184 3.4734 0 0 -0 0 0 -0 0 0 -0 0 0 -0 0 0 -0 0 0 -0 0 0 -12.5014 88.1196 14.2451 10.6914 -0.00160068 -0.00239207 0.000740045 -8.4365e-005 7.00714e-005 -9.52055e-007 9.93923e-017 -1.98785e-016 -1.59028e-015 9.93923e-017 -5.96354e-016 -1.59028e-015 -9.93923e-017 -5.96354e-016 -1.59028e-015 9.93923e-017 -1.98785e-016 -1.59028e-015 -0.0128176 0.00232552 8.52707e-005 9.93923e-017 5.96354e-016 -0 9.93923e-017 -1.98785e-016 -1.59028e-015 -0.0160551 0.00299681 0.000857156 -2.48481e-016 0 3.18055e-015 9.93923e-017 -1.98785e-016 -1.59028e-015 -0.0125865 0.0031206 0.00282719 0 1.98785e-016 -0 9.93923e-017 -1.98785e-016 -1.59028e-015 9.93923e-017 -5.96354e-016 -1.59028e-015 -9.93923e-017 -5.96354e-016 -1.59028e-015 -0.865644 0.16582 7.03859 -88.0329 10.2057 -10.5567 0.0015593 -0.00248883 -0.000788628 7.87605e-005 4.10553e-005 1.24965e-005 -3.97569e-016 -7.95139e-016 3.18055e-015 -1.98785e-016 -3.97569e-016 3.18055e-015 -1.98785e-016 0 3.18055e-015 -3.97569e-016 -7.95139e-016 3.18055e-015 0.0129473 0.00231697 -8.70038e-005 9.93923e-017 -7.95139e-016 1.59028e-015 -3.97569e-016 -7.95139e-016 3.18055e-015 0.0163314 0.00303369 -0.000872333 3.97569e-016 7.95139e-016 -3.18055e-015 -3.97569e-016 -7.95139e-016 3.18055e-015 0.0145763 0.00367772 -0.00326275 9.93923e-017 -3.97569e-016 -0 -3.97569e-016 -7.95139e-016 3.18055e-015 -1.98785e-016 -3.97569e-016 3.18055e-015 -1.98785e-016 0 3.18055e-015 3.42485 1.36937 -0.0640303 0.000136572 0.69354 0.00145564 -3.42573 -2.06297 -0.0607933 -3.19502e-024 0 -1.48106e-024 -3.42498 1.36123 0.0639712 -6.769e-005 0.712612 -0.0012277 3.42582 -2.07388 0.0612819 2.55305e-023 0 -2.31416e-026 
-37.1636 -1.60075 -6.6093 19.3532 -29.3666 18.0641 0.246047 8.08798 0.338653 0.450067 16.1772 0.651705 0.450068 16.1773 0.651705 -14.0029 -6.18578e-005 -8.00318 -16.0023 -1.01449e-006 -7.00198 4.21091 0.777943 -13.6621 17.1453 -24.4978 -6.63539 -53.2674 -70.1573 -33.3881 18.7661 2.10125 -0.616899 -5.55502e-006 1.29775e-005 -4.11374e-006 -1.42716e-006 6.76632e-006 -2.37987e-007 -3.57542e-006 -1.13965e-006 1.18823e-006 -5.55502e-006 1.29775e-005 -4.11374e-006 -0.0128217 0.00231014 8.49584e-005 -2.39784e-006 1.09992e-005 5.57097e-006 -5.55502e-006 1.29775e-005 -4.11374e-006 -0.0160176 0.00298456 0.000857417 -7.78773e-006 1.87903e-005 5.44359e-007 -5.55502e-006 1.29775e-005 -4.11374e-006 -0.0126396 0.00313046 0.00283773 -7.232e-006 1.88298e-005 -2.0778e-007 -5.55502e-006 1.29775e-005 -4.11374e-006 -1.42716e-006 6.76632e-006 -2.37987e-007 -3.57542e-006 -1.13965e-006 1.18823e-006 -8.30676 -0.864742 17.0715 -58.3759 -11.6909 13.4661 1.89455 -1.09989 -38.6985 26.9016 -20.1077 -1.09271 -1.59028e-015 3.18055e-015 -4.77083e-015 -1.16136e-006 -1.23063e-006 1.11995e-006 2.50239e-006 9.43366e-009 2.0301e-006 -1.59028e-015 3.18055e-015 -4.77083e-015 0.0129305 0.00230037 -8.18819e-005 -3.39508e-006 6.13337e-006 5.49472e-006 -1.59028e-015 3.18055e-015 -4.77083e-015 0.0163178 0.00301599 -0.000868756 1.59028e-015 -7.77372e-007 -4.77083e-015 -1.59028e-015 3.18055e-015 -4.77083e-015 0.0146113 0.0036749 -0.00326305 1.55588e-007 5.10865e-006 3.17734e-006 -1.59028e-015 3.18055e-015 -4.77083e-015 -1.16136e-006 -1.23063e-006 1.11995e-006 2.50239e-006 9.43366e-009 2.0301e-006 72.5121 -81.5112 69.1344 25.2872 81.0121 -30.1902 -5.98518 31.7426 29.5786 -6.1554e-008 -6.81672e-006 9.41123e-006 27.5628 -63.8075 84.9654 -153.494 52.5894 166.759 -33.3747 -16.5757 -51.0407 1.59028e-015 0 3.18055e-015 
-37.1636 -1.60075 -6.6093 19.3532 -29.3666 18.0641 0.246047 8.08798 0.338653 0.450067 16.1772 0.651705 0.450068 16.1773 0.651705 -14.0029 -6.18578e-005 -8.00318 -16.0023 -1.01449e-006 -7.00198 4.21091 0.777943 -13.6621 17.2945 -24.3102 -6.62229 -53.2673 -70.1573 -33.388 18.7661 2.10122 -0.616905 3.97569e-016 -3.18055e-015 6.60959e-015 -3.97569e-016 -3.18055e-015 3.62782e-015 7.95139e-016 0 3.8266e-015 3.97569e-016 -3.18055e-015 6.60959e-015 -0.0128089 0.00231961 9.11442e-005 1.19271e-015 1.59028e-015 4.96962e-017 3.97569e-016 -3.18055e-015 6.60959e-015 -0.0160378 0.00299786 0.000864901 -7.95139e-016 -3.18055e-015 -2.23633e-015 3.97569e-016 -3.18055e-015 6.60959e-015 -0.0125814 0.00311985 0.00282374 -3.97569e-016 1.27222e-014 -6.4605e-015 3.97569e-016 -3.18055e-015 6.60959e-015 -3.97569e-016 -3.18055e-015 3.62782e-015 7.95139e-016 0 3.8266e-015 -8.30676 -0.864742 17.0715 -58.3759 -11.6909 13.4661 1.89455 -1.09989 -38.6985 26.7179 -20.1156 -1.093 -1.36696e-007 -2.97109e-006 -3.18428e-006 -3.18055e-015 1.27222e-014 -1.59028e-015 -1.59028e-015 9.54166e-015 7.95139e-015 -1.36696e-007 -2.97109e-006 -3.18428e-006 0.0129688 0.00232429 -9.07352e-005 4.77083e-015 -3.18055e-015 6.36111e-015 -1.36696e-007 -2.97109e-006 -3.18428e-006 0.0163744 0.00304765 -0.00087104 1.25287e-006 -3.89303e-007 1.01426e-006 -1.36696e-007 -2.97109e-006 -3.18428e-006 0.014541 0.00366841 -0.00325418 5.84672e-006 2.43471e-007 -4.51389e-006 -1.36696e-007 -2.97109e-006 -3.18428e-006 -3.18055e-015 1.27222e-014 -1.59028e-015 -1.59028e-015 9.54166e-015 7.95139e-015 72.5121 -81.5112 69.1344 25.2872 81.0121 -30.1902 -5.98518 31.7426 29.5786 -6.1554e-008 -6.81672e-006 9.41123e-006 27.5628 -63.8075 84.9654 -153.494 52.5894 166.759 -33.3747 -16.5757 -51.0407 1.59028e-015 0 3.18055e-015 
-37.1636 -1.60075 -6.6093 19.3532 -29.3666 18.0641 0.246047 8.08798 0.338653 0.450067 16.1772 0.651705 0.450068 16.1773 0.651705 -14.0029 -6.18578e-005 -8.00318 -16.0023 -1.01449e-006 -7.00198 4.21091 0.777943 -13.6621 17.4435 -24.1225 -6.60975 -53.2673 -70.1574 -33.3881 18.7661 2.10124 -0.616883 6.59967e-006 7.10681e-007 4.39708e-006 1.82268e-006 9.07799e-007 -3.05572e-006 4.96353e-006 -1.22546e-006 6.75691e-006 6.59967e-006 7.10681e-007 4.39708e-006 -0.0128133 0.00232268 8.95031e-005 2.24684e-006 -3.22865e-008 2.03096e-006 6.59967e-006 7.10681e-007 4.39708e-006 -0.0160347 0.0030032 0.000849931 1.738e-006 -1.51529e-006 7.91586e-006 6.59967e-006 7.10681e-007 4.39708e-006 -0.0125709 0.00311086 0.00281662 3.783e-006 1.79268e-005 5.91525e-006 6.59967e-006 7.10681e-007 4.39708e-006 1.82268e-006 9.07799e-007 -3.05572e-006 4.96353e-006 -1.22546e-006 6.75691e-006 -8.30676 -0.864742 17.0715 -58.3759 -11.6909 13.4661 1.89455 -1.09989 -38.6985 26.5341 -20.1234 -1.09335 -1.59028e-015 3.18055e-015 -0 3.18055e-015 6.36111e-015 -4.77083e-015 -8.82781e-032 3.18055e-015 1.59028e-015 -1.59028e-015 3.18055e-015 -0 0.0129074 0.00232003 -9.05083e-005 -9.67528e-007 -1.70797e-005 7.48513e-006 -1.59028e-015 3.18055e-015 -0 0.0163934 0.00304992 -0.000878744 1.27222e-014 -1.59028e-014 3.18055e-015 -1.59028e-015 3.18055e-015 -0 0.0145585 0.00367239 -0.00325828 -1.25477e-006 3.8989e-007 -1.01344e-006 -1.59028e-015 3.18055e-015 -0 3.18055e-015 6.36111e-015 -4.77083e-015 -8.82781e-032 3.18055e-015 1.59028e-015 72.5121 -81.5112 69.1344 25.2872 81.0121 -30.1902 -5.98518 31.7426 29.5786 -6.1554e-008 -6.81672e-006 9.41123e-006 27.5628 -63.8075 84.9654 -153.494 52.5894 166.759 -33.3747 -16.5757 -51.0407 1.59028e-015 0 3.18055e-015 
